<?xml version="1.0" standalone="no"?><!DOCTYPE svg PUBLIC "-//W3C//DTD SVG 1.1//EN" "http://www.w3.org/Graphics/SVG/1.1/DTD/svg11.dtd"><svg t="1589251563155" class="icon" viewBox="0 0 1024 1024" version="1.1" xmlns="http://www.w3.org/2000/svg" p-id="3087" xmlns:xlink="http://www.w3.org/1999/xlink" width="200" height="200"><defs><style type="text/css"></style></defs><path d="M441.23 511.44L79.4 149.62c-17.44-19.25-16.72-48.81 1.65-67.18 18.38-18.37 47.93-19.1 67.18-1.65l361.83 361.82L871.89 80.79a48.718 48.718 0 0 1 47.95-14.55 48.725 48.725 0 0 1 35.43 35.43 48.728 48.728 0 0 1-14.54 47.95L578.89 511.44l361.83 361.83a48.734 48.734 0 0 1 14.54 47.95 48.709 48.709 0 0 1-35.43 35.43 48.768 48.768 0 0 1-47.95-14.55L510.06 580.27 148.23 942.1c-19.25 17.44-48.8 16.72-67.18-1.65-18.37-18.37-19.09-47.93-1.65-67.18l361.83-361.83z" p-id="3088"></path></svg>