<?xml version="1.0" standalone="no"?><!DOCTYPE svg PUBLIC "-//W3C//DTD SVG 1.1//EN" "http://www.w3.org/Graphics/SVG/1.1/DTD/svg11.dtd"><svg t="1588313631229" class="icon" viewBox="0 0 1024 1024" version="1.1" xmlns="http://www.w3.org/2000/svg" p-id="2283" xmlns:xlink="http://www.w3.org/1999/xlink" width="200" height="200"><defs><style type="text/css"></style></defs><path d="M512.18963 649.765926C436.242963 649.765926 374.518519 587.946667 374.518519 512s61.819259-137.765926 137.765925-137.765926S649.955556 436.053333 649.955556 512s-61.819259 137.765926-137.765926 137.765926z m0-232.865185c-52.432593 0-95.099259 42.666667-95.09926 95.099259s42.666667 95.099259 95.09926 95.099259 95.099259-42.666667 95.099259-95.099259-42.666667-95.099259-95.099259-95.099259z" p-id="2284"></path><path d="M572.017778 896H452.266667v-82.014815c-39.727407-7.86963-77.653333-23.608889-111.407408-46.174815L282.927407 825.837037l-84.669629-84.66963 58.026666-58.026666C233.718519 649.481481 218.074074 611.555556 210.204444 571.828148h-82.014814V452.171852h82.014814c7.86963-39.727407 23.608889-77.653333 46.174815-111.312593l-58.026666-58.026666 84.669629-84.66963 58.026667 58.026667c33.754074-22.565926 71.68-38.305185 111.407407-46.174815V128h119.656297v81.92c39.727407 7.86963 77.748148 23.608889 111.407407 46.174815L741.451852 198.162963l84.669629 84.66963-57.931851 57.931851C790.755556 374.518519 806.494815 412.444444 814.364444 452.266667h81.825186v119.656296h-81.825186c-7.86963 39.727407-23.608889 77.748148-46.174814 111.502222l57.931851 57.931852-84.764444 84.48-57.931852-57.931852c-33.754074 22.565926-71.68 38.305185-111.407407 46.174815V896zM494.933333 853.333333h34.322963v-76.041481l18.488889-2.465185c45.321481-6.068148 88.557037-23.988148 124.965926-51.768889l14.791111-11.282963 53.76 53.76 24.272593-24.272593-53.76-53.76 11.282963-14.791111c27.780741-36.503704 45.700741-79.644444 51.863703-124.965926l2.465186-18.488889H853.333333V494.933333h-75.946666l-2.465186-18.488889c-6.068148-45.321481-23.988148-88.557037-51.863703-124.965925l-11.282963-14.791112 53.76-53.76-24.272593-24.272592-53.76 53.76-14.791111-11.282963c-36.503704-27.780741-79.644444-45.700741-124.965926-51.768889l-18.488889-2.465185V170.666667H494.933333v76.041481l-18.488889 2.465185c-45.321481 6.068148-88.462222 23.988148-124.965925 51.768889l-14.791112 11.282963-53.76-53.76-24.272592 24.272593 53.854815 53.854815-11.282963 14.791111c-27.780741 36.408889-45.700741 79.644444-51.768889 124.871111l-2.465185 18.488889h-76.136297V529.066667h76.136297l2.465185 18.488889c6.068148 45.226667 23.988148 88.462222 51.768889 124.871111l11.282963 14.791111-53.854815 53.854815 24.272592 24.272592 53.76-53.76 14.791112 11.282963c36.408889 27.780741 79.644444 45.700741 124.965925 51.768889l18.488889 2.465185V853.333333z" p-id="2285"></path></svg>