<?xml version="1.0" standalone="no"?><!DOCTYPE svg PUBLIC "-//W3C//DTD SVG 1.1//EN" "http://www.w3.org/Graphics/SVG/1.1/DTD/svg11.dtd"><svg t="1589198668847" class="icon" viewBox="0 0 1024 1024" version="1.1" xmlns="http://www.w3.org/2000/svg" p-id="5347" xmlns:xlink="http://www.w3.org/1999/xlink" width="200" height="200"><defs><style type="text/css"></style></defs><path d="M526.925944 110.523209c-212.498742 0-384.763131 172.264389-384.763131 384.763131s172.264389 384.763131 384.763131 384.763131 384.763131-172.264389 384.763131-384.763131S739.424686 110.523209 526.925944 110.523209zM485.358223 698.317453c-1.696642 3.266393-3.911076 6.334265-6.652514 9.074679-13.519921 13.519921-34.933627 14.329357-49.403177 2.434445-1.411139-1.052982-2.765997-2.215458-4.047176-3.496637-0.937348-0.937348-1.811252-1.914606-2.626827-2.923586L270.343171 551.120996c-14.384615-14.384615-14.384615-37.705763 0-52.090379s37.705763-14.384615 52.090379 0l129.015376 129.015376 282.793738-282.793738c14.384615-14.384615 37.705763-14.384615 52.090379 0s14.384615 37.705763 0 52.090379L485.358223 698.317453z" p-id="5348"></path></svg>